<svg width="1920.000000" height="768.000000" viewBox="0 0 1920 768" fill="none" xmlns="http://www.w3.org/2000/svg" xmlns:xlink="http://www.w3.org/1999/xlink">
	<desc>
			Created with Pixso.
	</desc>
	<defs/>
	<rect id="Прямоугольник 44" x="0.500000" y="0.500000" width="191.000000" height="191.000000" stroke="#313131" stroke-opacity="1.000000" stroke-width="1.000000"/>
	<path id="awwwd 2024" d="M1020.96 113L996.07 113L996.07 107.68L1008.51 96.17C1011.67 93.12 1013.38 91.21 1013.38 88.43C1013.38 85.36 1011.1 83.45 1008.03 83.45C1004.84 83.45 1002.73 85.5 1002.74 88.84L995.73 88.84C995.72 81.99 1000.75 77.6 1008.07 77.6C1015.56 77.6 1020.51 81.88 1020.51 87.94C1020.51 91.91 1018.57 95.18 1011.4 101.73L1006.3 106.73L1006.3 106.96L1020.96 106.96L1020.96 113ZM1054.1 95.57C1054.09 107.08 1048.79 113.76 1040 113.76C1031.21 113.75 1025.88 107.04 1025.91 95.57C1025.93 84.13 1031.25 77.6 1040 77.6C1048.75 77.6 1054.12 84.16 1054.1 95.57ZM1084.24 113L1059.35 113L1059.35 107.68L1071.78 96.17C1074.93 93.12 1076.66 91.21 1076.66 88.43C1076.66 85.36 1074.37 83.45 1071.3 83.45C1068.11 83.45 1066 85.5 1066.01 88.84L1059.01 88.84C1059 81.99 1064.02 77.6 1071.35 77.6C1078.84 77.6 1083.78 81.88 1083.78 87.94C1083.78 91.91 1081.85 95.18 1074.68 101.73L1069.57 106.73L1069.57 106.96L1084.24 106.96L1084.24 113ZM971.6 108.8C970.59 110.98 968.39 113.42 964.17 113.42C958.19 113.42 953.54 108.69 953.54 99.94C953.54 90.94 958.41 86.48 964.15 86.48C968.53 86.48 970.63 89.08 971.6 91.21L971.82 91.21L971.82 78.08L979.07 78.08L979.07 113L971.91 113L971.91 108.8L971.6 108.8ZM1105.06 106.85L1088.31 106.85L1088.31 101.04L1102.89 78.08L1112.12 78.08L1112.12 100.95L1116.46 100.95L1116.46 106.85L1112.12 106.85L1112.12 113L1105.06 113L1105.06 106.85ZM1033.43 95.57C1033.41 103.62 1036 107.64 1040 107.64C1044 107.64 1046.59 103.62 1046.56 95.57C1046.56 87.65 1043.97 83.66 1040 83.66C1036.02 83.66 1033.43 87.65 1033.43 95.57ZM1095.75 100.95L1105.21 100.95L1105.21 86.14L1104.93 86.14L1095.75 100.67L1095.75 100.95ZM820.01 109.36C818.73 111.8 816.23 113.49 812.35 113.49C807.36 113.49 803.67 110.86 803.67 105.68C803.67 99.83 808.32 98.1 813.5 97.62C818.05 97.17 819.84 96.95 819.84 95.26L819.84 95.17C819.84 93.01 818.43 91.77 815.95 91.77C813.35 91.77 811.79 93.05 811.3 94.8L804.59 94.25C805.59 89.48 809.72 86.48 815.99 86.48C821.82 86.48 827.11 89.1 827.11 95.33L827.11 113L820.22 113L820.22 109.36L820.01 109.36ZM845.59 113L837.91 113L830.79 86.82L838.13 86.82L842.19 104.41L842.42 104.41L846.65 86.82L853.86 86.82L858.16 104.3L858.38 104.3L862.37 86.82L869.7 86.82L862.59 113L854.9 113L850.4 96.53L850.09 96.53L845.59 113ZM886.39 113L878.72 113L871.59 86.82L878.94 86.82L882.99 104.41L883.23 104.41L887.46 86.82L894.67 86.82L898.97 104.3L899.19 104.3L903.17 86.82L910.51 86.82L903.4 113L895.71 113L891.21 96.53L890.89 96.53L886.39 113ZM927.2 113L919.52 113L912.4 86.82L919.75 86.82L923.8 104.41L924.04 104.41L928.27 86.82L935.47 86.82L939.77 104.3L940 104.3L943.98 86.82L951.32 86.82L944.2 113L936.52 113L932.02 96.53L931.7 96.53L927.2 113ZM960.96 99.91C960.96 104.48 962.91 107.64 966.47 107.64C969.96 107.64 971.98 104.57 971.98 99.91C971.98 95.23 970 92.25 966.47 92.25C962.87 92.25 960.96 95.37 960.96 99.91ZM810.61 105.45C810.61 107.44 812.2 108.48 814.44 108.48C817.63 108.48 819.89 106.39 819.89 103.63L819.89 100.85C819.02 101.44 816.43 101.82 814.85 102.04C812.3 102.39 810.61 103.4 810.61 105.45Z" fill="#0E0E0E" fill-opacity="1.000000" fill-rule="evenodd"/>
	<rect id="Прямоугольник 44" x="192.500000" y="0.500000" width="191.000000" height="191.000000" stroke="#313131" stroke-opacity="1.000000" stroke-width="1.000000"/>
	<rect id="Прямоугольник 44" x="384.500000" y="0.500000" width="191.000000" height="191.000000" stroke="#313131" stroke-opacity="1.000000" stroke-width="1.000000"/>
	<rect id="Прямоугольник 44" x="576.500000" y="0.500000" width="191.000000" height="191.000000" stroke="#313131" stroke-opacity="1.000000" stroke-width="1.000000"/>
	<rect id="Прямоугольник 44" x="768.500000" y="0.500000" width="191.000000" height="191.000000" stroke="#313131" stroke-opacity="1.000000" stroke-width="1.000000"/>
	<rect id="Прямоугольник 44" x="960.500000" y="0.500000" width="191.000000" height="191.000000" stroke="#313131" stroke-opacity="1.000000" stroke-width="1.000000"/>
	<rect id="Прямоугольник 44" x="1152.500000" y="0.500000" width="191.000000" height="191.000000" stroke="#313131" stroke-opacity="1.000000" stroke-width="1.000000"/>
	<rect id="Прямоугольник 44" x="1344.500000" y="0.500000" width="191.000000" height="191.000000" stroke="#313131" stroke-opacity="1.000000" stroke-width="1.000000"/>
	<rect id="Прямоугольник 44" x="1536.500000" y="0.500000" width="191.000000" height="191.000000" stroke="#313131" stroke-opacity="1.000000" stroke-width="1.000000"/>
	<rect id="Прямоугольник 44" x="1728.500000" y="0.500000" width="191.000000" height="191.000000" stroke="#313131" stroke-opacity="1.000000" stroke-width="1.000000"/>
	<rect id="Прямоугольник 44" x="0.500000" y="192.500000" width="191.000000" height="191.000000" stroke="#313131" stroke-opacity="1.000000" stroke-width="1.000000"/>
	<rect id="Прямоугольник 44" x="192.500000" y="192.500000" width="191.000000" height="191.000000" stroke="#313131" stroke-opacity="1.000000" stroke-width="1.000000"/>
	<rect id="Прямоугольник 44" x="384.500000" y="192.500000" width="191.000000" height="191.000000" stroke="#313131" stroke-opacity="1.000000" stroke-width="1.000000"/>
	<rect id="Прямоугольник 44" x="576.500000" y="192.500000" width="191.000000" height="191.000000" stroke="#313131" stroke-opacity="1.000000" stroke-width="1.000000"/>
	<rect id="Прямоугольник 44" x="768.500000" y="192.500000" width="191.000000" height="191.000000" stroke="#313131" stroke-opacity="1.000000" stroke-width="1.000000"/>
	<rect id="Прямоугольник 44" x="960.500000" y="192.500000" width="191.000000" height="191.000000" stroke="#313131" stroke-opacity="1.000000" stroke-width="1.000000"/>
	<rect id="Прямоугольник 44" x="1152.500000" y="192.500000" width="191.000000" height="191.000000" stroke="#313131" stroke-opacity="1.000000" stroke-width="1.000000"/>
	<rect id="Прямоугольник 44" x="1344.500000" y="192.500000" width="191.000000" height="191.000000" stroke="#313131" stroke-opacity="1.000000" stroke-width="1.000000"/>
	<rect id="Прямоугольник 44" x="1536.500000" y="192.500000" width="191.000000" height="191.000000" stroke="#313131" stroke-opacity="1.000000" stroke-width="1.000000"/>
	<rect id="Прямоугольник 44" x="1728.500000" y="192.500000" width="191.000000" height="191.000000" stroke="#313131" stroke-opacity="1.000000" stroke-width="1.000000"/>
	<rect id="Прямоугольник 44" x="0.500000" y="384.500000" width="191.000000" height="191.000000" stroke="#313131" stroke-opacity="1.000000" stroke-width="1.000000"/>
	<rect id="Прямоугольник 44" x="192.500000" y="384.500000" width="191.000000" height="191.000000" stroke="#313131" stroke-opacity="1.000000" stroke-width="1.000000"/>
	<rect id="Прямоугольник 44" x="384.500000" y="384.500000" width="191.000000" height="191.000000" stroke="#313131" stroke-opacity="1.000000" stroke-width="1.000000"/>
	<rect id="Прямоугольник 44" x="576.500000" y="384.500000" width="191.000000" height="191.000000" stroke="#313131" stroke-opacity="1.000000" stroke-width="1.000000"/>
	<rect id="Прямоугольник 44" x="768.500000" y="384.500000" width="191.000000" height="191.000000" stroke="#313131" stroke-opacity="1.000000" stroke-width="1.000000"/>
	<rect id="Прямоугольник 44" x="960.500000" y="384.500000" width="191.000000" height="191.000000" stroke="#313131" stroke-opacity="1.000000" stroke-width="1.000000"/>
	<rect id="Прямоугольник 44" x="1152.500000" y="384.500000" width="191.000000" height="191.000000" stroke="#313131" stroke-opacity="1.000000" stroke-width="1.000000"/>
	<rect id="Прямоугольник 44" x="1344.500000" y="384.500000" width="191.000000" height="191.000000" stroke="#313131" stroke-opacity="1.000000" stroke-width="1.000000"/>
	<rect id="Прямоугольник 44" x="1536.500000" y="384.500000" width="191.000000" height="191.000000" stroke="#313131" stroke-opacity="1.000000" stroke-width="1.000000"/>
	<rect id="Прямоугольник 44" x="1728.500000" y="384.500000" width="191.000000" height="191.000000" stroke="#313131" stroke-opacity="1.000000" stroke-width="1.000000"/>
	<rect id="Прямоугольник 44" x="0.500000" y="576.500000" width="191.000000" height="191.000000" stroke="#313131" stroke-opacity="1.000000" stroke-width="1.000000"/>
	<rect id="Прямоугольник 44" x="192.500000" y="576.500000" width="191.000000" height="191.000000" stroke="#313131" stroke-opacity="1.000000" stroke-width="1.000000"/>
	<rect id="Прямоугольник 44" x="384.500000" y="576.500000" width="191.000000" height="191.000000" stroke="#313131" stroke-opacity="1.000000" stroke-width="1.000000"/>
	<rect id="Прямоугольник 44" x="576.500000" y="576.500000" width="191.000000" height="191.000000" stroke="#313131" stroke-opacity="1.000000" stroke-width="1.000000"/>
	<rect id="Прямоугольник 44" x="768.500000" y="576.500000" width="191.000000" height="191.000000" stroke="#313131" stroke-opacity="1.000000" stroke-width="1.000000"/>
	<rect id="Прямоугольник 44" x="960.500000" y="576.500000" width="191.000000" height="191.000000" stroke="#313131" stroke-opacity="1.000000" stroke-width="1.000000"/>
	<rect id="Прямоугольник 44" x="1152.500000" y="576.500000" width="191.000000" height="191.000000" stroke="#313131" stroke-opacity="1.000000" stroke-width="1.000000"/>
	<rect id="Прямоугольник 44" x="1344.500000" y="576.500000" width="191.000000" height="191.000000" stroke="#313131" stroke-opacity="1.000000" stroke-width="1.000000"/>
	<rect id="Прямоугольник 44" x="1536.500000" y="576.500000" width="191.000000" height="191.000000" stroke="#313131" stroke-opacity="1.000000" stroke-width="1.000000"/>
	<rect id="Прямоугольник 44" x="1728.500000" y="576.500000" width="191.000000" height="191.000000" stroke="#313131" stroke-opacity="1.000000" stroke-width="1.000000"/>
</svg>
